Alien 3 *1992* (Specjal Edition) [1080p.DTS-HD.MA 5.1.AC3.BluRay.x264-LEON 345]
================================================================================

produkcja: USA
 gatunek: Sci-Fi
 data premiery: 1992-05-22 (Świat)
 reżyseria David Fincher
 scenariusz David Giler , Walter Hill
 zdjęcia Alex Thomson
 muzyka Elliot Goldenthal

 Opis:

 Fiorina 161, zakażona przez wszy planeta, na której znajduje się więzienie pod zaostrzonym rygorem dla najgorszych złoczyńców. W tą zdominowaną przez mężczyzn komunę wkracza por. Ripley, a wraz z nią nieprzyjazny gość. Kolejny raz Ripley staje naprzeciw śmiertelnemu wrogowi, ale tym razem pozbawiona wszelkich zdobyczy techniki czy jakakolwiek broni, uzbrojona jedynie w umysł.

 General
 Unique ID : 229503165421221533119872029339909611166 (0xACA8B3AD3450DE149FCC1BCA96A3DE9E)
 Complete name : F:FilmyFilmy 3DSzablonWstawkaALIEN_3_1992.SE(Leon 345)ALIEN3.1992.Specjal Edition(Leon 345).mkv
 Format : Matroska
 Format version : Version 2
 File size : 15.2 GiB
 Duration : 2h 24mn
 Encoding type : 2 pass
 Overall bit rate mode : Variable
 Overall bit rate : 15.1 Mbps
 Encoded date : UTC 2013-04-09 15:40:38
 Writing application : mkvmerge v5.7.0 ('The Whirlwind' built on Jul 8 2012 20:08:51
 Writing library : libebml v1.2.3 + libmatroska v1.3.0

 Video
 ID : 1
 Format : AVC
 Format/Info : Advanced Video Codec
 Format profile : High@L4.1
 Format settings, CABAC : Yes
 Format settings, ReFrames : 2 frames
 Codec ID : V_MPEG4/ISO/AVC
 Duration : 2h 24mn
 Bit rate mode : Variable
 Bit rate : 11.5 Mbps
 Nominal bit rate : 10.1 Mbps
 Maximum bit rate : 35.0 Mbps
 Width : 1 920 pixels
 Height : 1 080 pixels
 Display aspect ratio : 16:9 (2.35:1)
 Frame rate mode : Constant
 Frame rate : 23.976 fps
 Color space : YUV
 Chroma subsampling : 4:2:0
 Bit depth : 8 bits
 Scan type : Progressive
 Bits/(Pixel*Frame) : 0.232
 Stream size : 11.7 GiB (77%)
 Title : Rip by Leon 345 encoding 2 pass
 Writing library : x264 core 130 r2273 b3065e6
 Default : Yes
 Forced : No

 Audio #1
 ID : 2
 Format : AC-3
 Format/Info : Audio Coding 3
 Mode extension : CM (complete main)
 Format settings, Endianness : Big
 Codec ID : A_AC3
 Duration : 2h 24mn
 Bit rate mode : Constant
 Bit rate : 640 Kbps
 Channel(s) : 6 channels
 Channel positions : Front: L C R, Side: L R, LFE
 Sampling rate : 48.0 KHz
 Bit depth : 16 bits
 Compression mode : Lossy
 Stream size : 663 MiB (4%)
 Title : AC3 5.1 Orginal
 Language : English
 Default : Yes
 Forced : Yes

 Audio #2
 ID : 3
 Format : DTS
 Format/Info : Digital Theater Systems
 Format profile : MA / Core
 Codec ID : A_DTS
 Duration : 2h 24mn
 Bit rate mode : Variable
 Bit rate : 4145 Kbps / 1 510 Kbps
 Channel(s) : 6 channels
 Channel positions : Front: L C R, Side: L R, LFE
 Sampling rate : 48.0 KHz
 Bit depth : 24 bits
 Compression mode : Lossless / Lossy
 Title : DTS-HD MA 5.1 Orginal
 Language : English
 Default : No
 Forced : No

 Text #1
 ID : 4
 Format : PGS
 Muxing mode : zlib
 Codec ID : S_HDMV/PGS
 Codec ID/Info : The same subtitle format used on BDs/HD-DVDs
 Language : English
 Default : No
 Forced : No

 Text #2
 ID : 5
 Format : UTF-8
 Codec ID : S_TEXT/UTF8
 Codec ID/Info : UTF-8 Plain Text
 Language : Polish
 Default : Yes
 Forced : No

 Source [thx]:
 A/V- Alien Anthology [2-in-1: Theatrical ; Director's Cut/Special Edition] {6-Disc Edition} (1979/1986/1992/1997) Blu-ray 1080p AVC DTS 5.1"
 =================================================================